<svg viewBox="0 0 512 128" xmlns="http://www.w3.org/2000/svg" xml:space="preserve" style="fill-rule:evenodd;clip-rule:evenodd;stroke-linejoin:round;stroke-miterlimit:2">
  <path d="m2.2 50-2 3.3A2 2 0 0 0 1 56l13 8a2 2 0 0 0 2.7-.6l2-3.3c5-8.5 10.3-7.4 19.6-3l12.9 6.1a2 2 0 0 0 2.7-1l6.2-14a2 2 0 0 0-1-2.5l-13-6.2C28.5 31 13.6 31.5 2.2 50Z" style="fill:url(#a);fill-rule:nonzero" transform="translate(0 27.4)"/>
  <path d="m60.5 17.3 2-3.3a2 2 0 0 0-.7-2.7l-13-8a2 2 0 0 0-2.8.6l-1.9 3.2c-5.1 8.5-10.3 7.5-19.7 3l-12.8-6a2 2 0 0 0-2.7 1L2.7 19a2 2 0 0 0 1 2.5l13 6.2c17.5 8.5 32.4 8 43.8-10.5Z" style="fill:url(#b);fill-rule:nonzero" transform="translate(0 27.4)"/>
  <path d="M290.7 46h7.6v26.6c0 7.9 3.2 11.4 10.4 11.4 7 0 11.9-4.7 11.9-13.6V46h7.5v44h-7.5v-7.2c-2.8 5-8.1 8.2-14 8-10 0-15.9-6.9-15.9-19V46Zm-156 41.4a29.2 29.2 0 0 1-15.4 3.5c-19 0-29.7-11.5-29.7-29.7 0-17.6 10.7-30 29.5-30 5.7 0 11.3 1.1 15.4 4.1V43c-4-2.7-8.7-4-15.4-4-13.5 0-21.6 9-21.6 22.2 0 13.3 8.4 22 22 22 5.3.1 10.5-1 15.1-3.4v7.6Zm5.5-19.5c0-13.2 7.7-22.8 21-22.8 13 0 20.7 9.6 20.7 22.8 0 13.2-7.7 23-20.8 23-13.2 0-21-9.8-21-23Zm324.5 21c-2.6 1.3-6.7 2-10.7 2-15.7 0-23-9.5-23-23 0-13.3 7.3-22.8 23-22.8 3.6-.1 7.2.6 10.4 2.1v7a22.2 22.2 0 0 0-9.9-2c-11.4 0-16.1 7.2-16.1 15.7s4.8 15.7 16.3 15.7c3.4.1 6.8-.4 10-1.5v6.7Zm29.7 2c-16.5 0-23.7-9.5-23.7-23 0-13.3 7.4-22.8 20.8-22.8 13.5 0 19 9.4 19 22.8v3.4h-32.1c1 7.5 5.9 12.3 16.2 12.3 4.6 0 9.1-.8 13.4-2.3v7c-3.6 1.9-9.1 2.6-13.6 2.6Zm-133.8 0c-16.4 0-23.7-9.5-23.7-23 0-13.3 7.4-22.8 20.8-22.8 13.6 0 19 9.4 19 22.8v3.4h-32.1c1 7.5 5.9 12.3 16.3 12.3 4.5 0 9-.8 13.3-2.3v7c-3.6 1.9-9.1 2.6-13.6 2.6Zm-80.2-.7c-7.2 0-11.7-3.4-11.7-11.5V27.6h7.5v50.2c0 4 2.7 5.4 6 5.4h2.1v6.7a16 16 0 0 1-3.9.3ZM249.1 46h11.4v7H249v37h-7.4V53h-7.1v-7h7.1V41c0-8.1 4.6-13.7 14-13.7 1.7 0 3.5.2 5.1.7v7a25 25 0 0 0-4.7-.5c-4.7 0-7 2.8-7 6.7V46Zm-21 44h-7.6V63.4c0-8-3.2-11.4-10.4-11.4-7 0-11.8 4.6-11.8 13.5V90h-7.6V46h7.6v7.2c2.7-5.1 8-8.2 13.9-8.1 10 0 15.9 7 15.9 19V90Zm195 0h-7.6V63.4c0-8-3.1-11.4-10.4-11.4-7 0-11.8 4.6-11.8 13.5V90h-7.6V46h7.6v7.2c2.7-5.1 8-8.2 13.9-8.1 10 0 15.9 7 15.9 19V90ZM147.6 67.9c0 8.3 4.1 16 13.5 16 9.3 0 13.4-7.7 13.4-16 0-8.4-4-15.8-13.4-15.8s-13.5 7.4-13.5 15.8Zm330.7-3h24.5c-.4-8.3-4.1-13-11.7-13-8 0-12 5.3-12.8 13Zm-133.8 0h24.6c-.5-8.3-4.2-13-11.7-13-8 0-12.1 5.3-12.9 13Z" style="fill:#fff;fill-rule:nonzero"/>
  <defs>
    <linearGradient id="a" x1="0" y1="0" x2="1" y2="0" gradientUnits="userSpaceOnUse" gradientTransform="rotate(-150.1 39 26.1) scale(45.363)">
      <stop offset="0" style="stop-color:#2fbfce;stop-opacity:.4"/>
      <stop offset="1" style="stop-color:#2fbfce;stop-opacity:1"/>
    </linearGradient>
    <linearGradient id="b" x1="0" y1="0" x2="1" y2="0" gradientUnits="userSpaceOnUse" gradientTransform="rotate(34.8 -2 20) scale(34.4434)">
      <stop offset="0" style="stop-color:#ffc833;stop-opacity:.4"/>
      <stop offset="1" style="stop-color:#ffc833;stop-opacity:1"/>
    </linearGradient>
  </defs>
</svg>
