<svg width="231" height="110" viewBox="0 0 231 110" fill="none" xmlns="http://www.w3.org/2000/svg">
<g clip-path="url(#clip0_238_21226)">
<path fill-rule="evenodd" clip-rule="evenodd" d="M214.738 0H197.505C196.646 0.00776124 195.866 0.345375 195.281 0.888662L160.751 33.1288C148.923 44.1808 133.005 50.3859 115.502 50.3859C97.2578 50.3859 80.7503 43.6104 68.7892 31.7279C68.7892 31.7279 43.3918 8.0096 43.1732 7.79616C38.299 3.28688 31.5906 0.170747 23.8676 0H3.25077C1.45563 0 0 1.44747 0 3.23255V93.8217C0 102.763 7.27814 110 16.2656 110H22.5603H26.814C28.6209 110 30.0843 108.541 30.0843 106.748L30.0921 74.5117C30.0921 66.0869 37.0073 59.1367 45.343 59.1367C60.8593 59.1367 71.9853 72.3541 82.0381 81.1825C94.3505 91.9978 103.834 102.417 115.502 102.417C127.159 102.417 136.646 91.9978 148.958 81.1825C159.015 72.3541 170.141 59.1367 185.649 59.1367C193.942 59.1367 200.822 66.0171 200.904 74.3759V93.8217C200.904 102.763 208.186 109.984 217.177 109.984H224.198C226.032 109.984 227.734 110 227.734 110C229.537 110 231 108.541 231 106.752C231 106.705 231 16.935 231 16.1783C231 7.24123 223.714 0 214.738 0Z" fill="#FFC832"/>
</g>
<defs>
<clipPath id="clip0_238_21226">
<rect width="231" height="110" fill="white"/>
</clipPath>
</defs>
</svg>
